<?xml version="1.0" encoding="utf-8"?>
<!-- Generator: Adobe Illustrator 19.1.0, SVG Export Plug-In . SVG Version: 6.00 Build 0)  -->
<svg version="1.1" id="Layer_1" xmlns="http://www.w3.org/2000/svg" xmlns:xlink="http://www.w3.org/1999/xlink" x="0px" y="0px"
	 viewBox="0 0 80 80" style="enable-background:new 0 0 80 80;" xml:space="preserve">
<style type="text/css">
	.st0{fill:#9BBCBB;}
	.st1{fill:#139B9B;}
</style>
<g>
	<path class="st0" d="M78.8,40.2C78.8,18.7,61.4,1.3,40,1.3S1.2,18.7,1.2,40.2c0,10,3.8,19.2,10.1,26.1c-0.1-6.4,0-12.8,0.8-16.2
		c1.8-8.7,10-22.8,27-22.8c17.3,0,25.2,13.1,27,21.5c0.9,4.1,1,11.9,0.9,19.5C74.2,61.1,78.8,51.2,78.8,40.2z"/>
	<path class="st1" d="M66,48.7c-1.8-8.4-9.7-21.5-27-21.5c-17,0-25.2,14.2-27,22.8c-0.7,3.5-0.9,9.9-0.8,16.2
		C18.3,74.1,28.6,79,40,79c10.4,0,19.9-4.1,26.9-10.8C67,60.6,66.9,52.8,66,48.7z"/>
</g>
<circle class="st1" cx="38.2" cy="15.8" r="7.2"/>
</svg>
