<?xml version="1.0" encoding="utf-8"?>
<!-- Generator: Adobe Illustrator 19.1.0, SVG Export Plug-In . SVG Version: 6.00 Build 0)  -->
<svg version="1.1" id="Layer_1" xmlns="http://www.w3.org/2000/svg" xmlns:xlink="http://www.w3.org/1999/xlink" x="0px" y="0px"
	 viewBox="0 0 300.2 864.1" style="enable-background:new 0 0 300.2 864.1;" xml:space="preserve">
<style type="text/css">
	.st0{fill:#012F30;}
</style>
<path class="st0" d="M177.7,138.3c10,3.3,25.9,10.1,35.6,15.5c13.4-1.2,48.4,13,43.1,67.1c-0.4,3.7,1.6,9.4,3.7,16.3
	c2,6.9,5.3,18.7,4.9,48.8c0,6.9,0.8,11.8,5.3,21.2c4.5,9.4,7.7,15.1,8.2,37.8c0,0-2.1,42.7,2.4,55.3c1.6,4.9,2.9,6.9,1.2,28.1
	c-0.4,3.3,2,26,2.4,36.2l-13.4,28.1c-1.2,3.3-1.2,4.5-6.1,7.7l-15.9,10.2l-2-1.2c-2.8-2-0.4-5.7-0.4-5.7l-4.9-0.4l-0.8-1.6
	c1.2-4.5,3.7-7.7,9-7.3c1.2-4.5,7.3-11.8,11.8-11.8c-1.2-4.5,0-10.2,2-12.6c-1.6-1.6-1.6-4.5-1.6-4.5c0-2.8-2.8-4.1-4.5,0
	c-1.6,3.3-0.8,6.1-0.8,8.1c-1.6,3.7-3.2,6.5-6.5,8.5l-3.7-0.8c-0.4-4.5-0.8-7.3,0.4-11.8c3.3-4.1,4.9-8.5,4.5-17.1
	c-0.4-8.5-0.4-22,8.9-26.4c-0.8-9.8-6.9-29.7-15-47.2c-8.1-17.5-16.7-34.2-13.8-64.7c0-3.3,0-6.5-3.2-11.4
	c-3.3-4.9-6.1-20.3-7.8-35.8c-0.4,5.7-1.6,8.9-3.2,13c-1.6,4.1-2,11.8-0.4,22.8c1.6,11,6.5,21.6,4,52.9c-0.8,4.5,5,28.8,10.6,42.3
	c6.5,15.9,19.5,74.5-11,170.1c-2,7.3-7.3,16.7-8.5,18.3c-1.6,2-0.8,14.7,0,19.5c0.8,4.9,1.6,12.2-4.1,21.2c-2,3.2-2,15.4,0,31.3
	c2,15.9,4.5,40.7-7.7,72.8c-4.1,11-11,37-10.2,49.2c0.4,3.7,1.2,8.5,2,11c0.8,2.4,2.4,5.3-1.6,12.2c0.4,8.1,12.4,15.5,13.2,29.3
	l0.2,0.4l5.7,4.1c0,0,2.4,2,0.8,5.7c-1.6,3.6-4.9,3.6-8.5,1.2c-2.8,3.2-6.1,1.6-8.1,0c-2,2.4-5.7,4.1-8.1,0.4
	c-2.4,2.4-6.1,2.4-8.9,0c-2.4,2.9-5.7,2.9-8.9,0c-3.7,0.4-6.1-6.5-6.1-13c0-6.5-1.2-7.3-2.4-9.8c-1.2-2.4-2.9-8.6,2-14.2
	c0.8-1.6,1.6-4.9-0.8-9.4c-2.4-4.5-2.8-12.6-0.4-22c2.4-9.4,5.7-35,1.2-50.9c-4.5-15.9-11.4-31.7-5.7-54.5c1.2-3.2,6.5-16.7,0-28.9
	c-6.5-12.2-3.2-38.6-0.4-50.4c2.8-11.8,6.9-53.7,1.6-87.9c-1.6-8.5-4.5-23.6-4.5-35.8h-2.4c0,12.2-2.9,27.3-4.5,35.8
	c-5.3,34.2-1.2,76.1,1.6,87.9c2.9,11.8,6.1,38.3-0.4,50.4c-6.5,12.2-1.2,25.6,0,28.9c5.7,22.8-1.2,38.7-5.7,54.5
	c-4.5,15.9-1.2,41.5,1.2,50.9c2.4,9.3,2,17.5-0.4,22c-2.5,4.5-1.6,7.7-0.8,9.4c4.9,5.7,3.2,11.8,2,14.2c-1.2,2.4-2.5,3.2-2.5,9.8
	c0,6.5-2.4,13.4-6.1,13c-3.3,2.9-6.5,2.9-9,0c-2.8,2.4-6.5,2.4-8.9,0c-2.4,3.7-6.1,2-8.1-0.4c-2,1.6-5.3,3.2-8.1,0
	c-3.7,2.4-6.9,2.4-8.6-1.2c-1.6-3.7,0.8-5.7,0.8-5.7l5.7-4.1l0.2-0.4c0.8-13.8,12.8-21.2,13.2-29.3c-4.1-6.9-2.4-9.8-1.6-12.2
	c0.8-2.4,1.6-7.3,2-11c0.8-12.2-6.1-38.2-10.2-49.2c-12.2-32.1-9.8-56.9-7.7-72.8c2-15.9,2-28.1,0-31.3c-5.7-9-4.9-16.3-4.1-21.2
	c0.8-4.9,1.6-17.5,0-19.5c-1.2-1.6-6.5-11-8.6-18.3C51,472.3,64,413.7,70.6,397.8c5.5-13.5,11.4-37.8,10.6-42.3
	c-2.4-31.3,2.4-41.9,4.1-52.9c1.6-11,1.2-18.7-0.4-22.8c-1.6-4.1-2.8-7.3-3.2-13c-1.6,15.5-4.5,30.9-7.7,35.8
	c-3.3,4.9-3.3,8.1-3.3,11.4c2.8,30.5-5.7,47.2-13.8,64.7c-8.1,17.5-14.2,37.4-15,47.2c9.4,4.5,9.4,17.9,8.9,26.4
	c-0.4,8.6,1.2,13,4.5,17.1c1.2,4.5,0.8,7.3,0.4,11.8l-3.7,0.8c-3.2-2-4.9-4.9-6.5-8.5c0-2,0.8-4.9-0.8-8.1c-1.6-4.1-4.4-2.8-4.4,0
	c0,0,0,2.8-1.6,4.5c2,2.4,3.2,8.1,2,12.6c4.5,0,10.6,7.3,11.8,11.8c5.3-0.4,7.7,2.9,8.9,7.3l-0.8,1.6l-4.9,0.4c0,0,2.4,3.7-0.4,5.7
	l-2,1.2l-15.9-10.2c-4.9-3.2-4.9-4.5-6.1-7.7l-13.4-28.1c0.4-10.2,2.9-32.9,2.4-36.2c-1.6-21.2-0.4-23.2,1.2-28.1
	c4.5-12.6,2.4-55.3,2.4-55.3c0.4-22.8,3.6-28.5,8.1-37.8c4.5-9.4,5.3-14.2,5.3-21.2c-0.4-30.1,2.9-41.9,4.9-48.8
	c2.1-6.9,4.1-12.6,3.7-16.3c-5.3-54.1,29.7-68.3,43.1-67.1c10-5.5,26.4-12.5,36.4-15.7l0.2-0.4c0-6.1-2.3-8.9-6.1-8.6
	c-4.2,0.6-13.3,0.8-14.8,0c-3.4-1.1-4.8-5.7-4-6.9c0.8-1.1,1.5-4.2,0.8-5.3l-1.7-1.3l-1.1-2.8l2.1-2.2l-2.9-2l-0.6-3.3
	c3.4-1.9,2.5-7.2,0.2-7.2h-4.9L90,95.7l8.9-17.1c0.4-3.8-1.9-10.1-1.9-10.1c0.4-5,5.2-13.5,5.2-13.5l-7.6-7.6
	c2.3-6.1,9.2-28.2,56.8-28.2c38.9,0,53.7,29.7,51,56.4c-6.8,47.2-24.8,24.4-24.8,62.5L177.7,138.3L177.7,138.3z"/>
</svg>
